<svg width="74" height="30" viewBox="0 0 74 30" fill="none" xmlns="http://www.w3.org/2000/svg">
<path d="M15.6545 15.3907C15.6545 19.6174 12.158 21.7971 7.8698 21.7971C1.30978 21.7971 0 18.6584 0 16.9139C0 15.9108 0.569793 14.9076 2.18667 14.9076C3.05986 14.9076 3.19306 15.5161 3.62965 16.6078C4.24015 18.1347 5.90512 18.7875 7.7847 18.7875C9.97137 18.7875 12.2431 17.9577 12.2431 15.8222C12.2431 11.2452 0 15.4719 0 7.19193C0 2.39731 4.59164 0 8.87619 0C12.0248 0 14.822 1.52691 14.822 4.83888C14.822 6.66821 13.3346 8.06603 11.8916 8.06603C10.9297 8.06603 10.2748 7.41322 10.2748 6.58338C10.2748 4.9274 11.7177 4.49219 11.7177 4.14182C11.7177 3.48901 10.186 3.0538 8.74299 3.0538C6.11972 3.0538 3.27816 4.58071 3.27816 6.80098C3.27816 11.4665 15.6545 6.84524 15.6545 15.387V15.3907Z" fill="black"/>
<path d="M25.5963 16.8586C26.3621 16.8586 26.8024 17.5815 26.8024 18.061C26.8024 19.3039 24.7083 21.4725 21.4893 21.4725C17.4638 21.4725 16.6572 18.5441 17.1012 13.2848C15.6101 12.8016 15.1698 11.9607 15.2105 11.2784C15.2919 10.0761 16.4574 9.95437 17.4268 9.95437C17.9115 7.34683 19.0769 3.05012 21.1711 3.05012C22.3403 3.05012 22.6622 4.69504 22.5401 6.33996C22.418 7.38372 22.1775 8.70777 21.6151 10.4338C22.3403 10.3933 22.7843 10.3933 23.0655 10.3933C23.7907 10.3933 24.5159 10.5555 24.4345 11.3153C24.3124 12.5176 23.2653 13.4839 20.4496 13.602C20.3275 13.8823 20.2091 14.2031 20.0463 14.4466C20.0056 16.9766 20.531 18.4593 22.0591 18.4593C23.5872 18.4593 24.3938 16.8549 25.6037 16.8549L25.5963 16.8586Z" fill="black"/>
<path d="M39.7708 17.9835C39.7708 20.0304 36.5112 21.4762 34.8573 21.4762C33.2034 21.4762 32.1193 20.7128 31.7567 19.9899C31.1129 20.6722 29.6625 21.3139 28.4157 21.3139C26.4843 21.3139 24.5899 19.9899 24.5899 17.4598C24.5899 14.288 27.4907 10.515 31.0315 10.515C31.9972 10.515 32.7224 10.917 33.2478 11.3596C33.8509 11.3596 34.9794 11.4813 34.9794 12.123C34.9794 13.8896 34.2135 16.7775 34.2135 17.4192C34.2135 17.9798 34.3763 18.5035 35.0608 18.5035C36.4705 18.5035 37.3547 16.8586 38.4832 16.8586C39.2491 16.8586 39.7708 17.4598 39.7708 17.9835ZM31.3534 16.7812C31.9158 16.1394 31.9158 14.8559 31.9158 14.2916C31.9158 13.8896 31.5939 13.6093 31.2313 13.6093C29.2592 13.6093 27.6868 15.2948 27.6868 16.7406C27.6868 17.504 28.0494 18.0647 28.8929 18.1052C29.6181 18.1052 30.6652 17.5446 31.3497 16.7812H31.3534Z" fill="black"/>
<path d="M59.5396 18.1864C59.5396 19.5104 58.0078 20.5947 56.28 20.8345C56.4798 21.2771 56.6833 22.4794 56.6833 23.6043C56.6833 26.2524 55.0738 29.9074 51.5292 29.9074C47.9847 29.9074 47.1411 25.4521 47.019 23.6854C46.9376 22.7228 46.9376 21.4762 46.9376 20.0747V16.7037C46.0903 17.3049 45.1653 17.6258 44.281 17.788C45.4095 19.433 46.2124 21.6422 46.2124 23.8071C46.2124 26.6987 44.3994 29.7082 42.1461 29.7082C39.0863 29.7082 37.5545 27.1007 37.5545 24.8509C37.5545 23.2871 37.7543 19.8756 37.7543 18.0683C37.7543 12.7316 37.5915 2.69606 38.9235 0.929427C39.3675 0.328256 40.0927 0.00738525 40.8956 0.00738525C42.3866 0.00738525 42.9897 1.89204 42.9897 5.0233C42.9897 7.35053 42.2645 10.7621 41.1768 14.8965C41.6985 15.2174 42.3052 15.3391 42.9083 15.3391C44.9618 15.3391 47.056 13.613 47.0967 11.1235C47.1374 7.91113 47.4186 3.49639 47.8219 1.72976C47.9847 1.00688 48.6285 0.527418 49.5128 0.527418C51.1222 0.527418 51.4441 2.17234 51.4441 4.13813C51.4441 8.59344 50.9224 13.2479 50.4377 16.0177C50.6782 15.9366 50.9594 15.8554 51.285 15.8554C51.9695 15.8554 53.3792 16.1357 54.7075 17.7401C57.1236 18.1015 57.0422 16.8586 58.2113 16.8586C58.9365 16.8586 59.5396 17.3418 59.5396 18.1827V18.1864ZM43.2709 23.8846C43.2709 22.1991 42.3459 19.9899 40.8549 18.2638C40.8549 19.2264 40.8142 20.5911 40.8142 21.3951V23.2428C40.8142 25.4115 40.977 26.5733 41.7798 26.5733C42.8676 26.5733 43.2709 25.0095 43.2709 23.8846ZM53.7011 23.442C53.7011 22.2397 53.5383 21.3139 53.2164 20.7533C52.0879 20.6722 51.1222 20.5136 50.4377 19.9899C50.397 20.9119 50.3563 21.6754 50.3563 22.6786C50.3563 24.6444 50.4784 26.5327 51.8067 26.5327C53.135 26.5327 53.6974 24.9283 53.6974 23.442H53.7011Z" fill="black"/>
<path d="M70.7024 18.2269C71.7014 17.4672 72.1602 17.1242 72.7633 17.15C73.3664 17.1758 74.0286 17.6848 73.999 18.4076C73.9879 18.6474 73.8806 19.2449 73.2924 19.8239C72.1565 20.9414 70.4397 21.55 68.7599 22.1622C68.6563 23.6448 68.5786 24.4857 68.5231 24.8841C68.1827 28.1223 66.5288 30.1028 63.9907 29.9959C61.9002 29.9074 60.2315 28.351 60.3166 26.3446C60.4313 23.6965 63.2433 22.011 65.5891 20.8234C65.5743 20.2185 65.6002 19.5768 65.6187 19.1785C64.7714 20.1853 63.6429 21.1037 62.1555 21.041C60.7865 20.982 58.537 19.9235 58.2188 17.9024C58.0301 16.689 57.9561 15.5604 58.0079 14.3175C58.0597 13.0746 57.9524 9.97649 60.0835 10.0687C61.3711 10.124 61.4414 11.2932 61.4044 12.1746C61.3563 13.2958 61.0603 14.6088 61.0122 15.6932C60.9641 16.7775 61.2083 17.7106 62.2147 17.7512C63.543 17.8065 65.6483 15.6489 65.7593 13.0414C65.837 11.2378 66.1958 10.408 67.4427 10.4596C68.8117 10.5187 68.9745 11.4075 68.8931 13.3327C68.8339 14.7379 68.66 16.9398 68.5897 19.4661C69.5776 18.9461 70.1992 18.6105 70.6987 18.2306L70.7024 18.2269ZM65.6372 23.5563C64.4828 24.1907 63.7243 24.9615 63.6762 26.0458C63.654 26.5659 63.9648 26.8609 64.4865 26.8831C65.2931 26.8757 65.5447 25.6844 65.6372 23.5563Z" fill="black"/>
</svg>
