<svg width="84" height="27" viewBox="0 0 84 27" fill="none" xmlns="http://www.w3.org/2000/svg">
<path d="M0.637325 26V1.321H10.7753C13.1927 1.321 15.0057 1.92533 16.2143 3.134C17.4477 4.34267 18.0643 6.131 18.0643 8.499C18.0643 9.92967 17.7683 11.2 17.1763 12.31C16.5843 13.42 15.758 14.2957 14.6973 14.937C13.6367 15.5783 12.391 15.899 10.9603 15.899L12.0703 15.159L19.1743 26H16.0293L8.70332 14.678L10.0353 16.047H3.30133V26H0.637325ZM3.30133 13.531H9.55433C11.6017 13.531 13.0817 13.124 13.9943 12.31C14.9317 11.4713 15.4003 10.2627 15.4003 8.684C15.4003 7.204 15.055 6.03233 14.3643 5.169C13.6737 4.281 12.3787 3.837 10.4793 3.837H3.30133V13.531ZM30.6761 26.555C28.9248 26.555 27.4078 26.1973 26.1251 25.482C24.8425 24.742 23.8558 23.6443 23.1651 22.189C22.4745 20.7337 22.1291 18.9207 22.1291 16.75C22.1291 13.568 22.8445 11.1877 24.2751 9.609C25.7305 8.00567 27.7161 7.204 30.2321 7.204C32.2055 7.204 33.7841 7.648 34.9681 8.536C36.1768 9.424 37.0401 10.6203 37.5581 12.125C38.0761 13.6297 38.3228 15.3317 38.2981 17.231H23.4611L23.6461 14.789H36.5591L35.5231 15.159C35.4491 13.309 34.9805 11.9277 34.1171 11.015C33.2785 10.1023 31.9835 9.646 30.2321 9.646C29.0235 9.646 28.0121 9.868 27.1981 10.312C26.4088 10.756 25.8168 11.533 25.4221 12.643C25.0275 13.7283 24.8301 15.2577 24.8301 17.231C24.8301 19.4757 25.3481 21.19 26.3841 22.374C27.4448 23.5333 28.9248 24.113 30.8241 24.113C31.7368 24.113 32.5755 24.0513 33.3401 23.928C34.1048 23.78 34.8078 23.5827 35.4491 23.336C36.0905 23.0893 36.6578 22.818 37.1511 22.522V25.26C36.2631 25.6793 35.2765 26 34.1911 26.222C33.1305 26.444 31.9588 26.555 30.6761 26.555ZM53.2415 26.37C50.7995 26.37 48.7522 25.9013 47.0995 24.964C45.4715 24.002 44.2382 22.5837 43.3995 20.709C42.5855 18.8343 42.1785 16.491 42.1785 13.679C42.1785 9.48567 43.1035 6.32833 44.9535 4.207C46.8282 2.061 49.5908 0.987998 53.2415 0.987998C55.7082 0.987998 57.7555 1.469 59.3835 2.431C61.0362 3.36833 62.2695 4.77433 63.0835 6.649C63.9222 8.52367 64.3415 10.867 64.3415 13.679C64.3415 17.8723 63.4042 21.042 61.5295 23.188C59.6795 25.3093 56.9168 26.37 53.2415 26.37ZM53.2415 23.854C55.1902 23.854 56.7812 23.4963 58.0145 22.781C59.2478 22.0657 60.1482 20.9557 60.7155 19.451C61.3075 17.9463 61.6035 16.0223 61.6035 13.679C61.6035 11.3357 61.3075 9.424 60.7155 7.944C60.1482 6.43933 59.2478 5.32933 58.0145 4.614C56.7812 3.874 55.1902 3.504 53.2415 3.504C51.3175 3.504 49.7388 3.874 48.5055 4.614C47.2722 5.32933 46.3595 6.43933 45.7675 7.944C45.2002 9.424 44.9165 11.3357 44.9165 13.679C44.9165 16.0223 45.2002 17.9463 45.7675 19.451C46.3595 20.9557 47.2722 22.0657 48.5055 22.781C49.7388 23.4963 51.3175 23.854 53.2415 23.854ZM68.4022 9.017C68.9942 8.721 69.5986 8.462 70.2152 8.24C70.8566 7.99333 71.4979 7.796 72.1392 7.648C72.8052 7.5 73.4712 7.389 74.1372 7.315C74.8279 7.241 75.5186 7.204 76.2092 7.204C78.0099 7.204 79.4406 7.47533 80.5012 8.018C81.5619 8.536 82.3266 9.30067 82.7952 10.312C83.2886 11.3233 83.5352 12.5443 83.5352 13.975V26H80.8712V13.975C80.8712 13.531 80.8096 13.0623 80.6862 12.569C80.5876 12.0757 80.3779 11.607 80.0572 11.163C79.7366 10.6943 79.2432 10.3243 78.5772 10.053C77.9112 9.757 77.0232 9.609 75.9132 9.609C75.1486 9.609 74.3592 9.67067 73.5452 9.794C72.7312 9.91733 71.9049 10.1023 71.0662 10.349V26H68.4022V9.017Z" fill="#FD2A44"/>
</svg>
